<?xml version="1.0" standalone="no"?>
<!DOCTYPE svg PUBLIC "-//W3C//DTD SVG 20010904//EN"
 "http://www.w3.org/TR/2001/REC-SVG-20010904/DTD/svg10.dtd">
<svg version="1.0" xmlns="http://www.w3.org/2000/svg"
 width="488.000000pt" height="486.000000pt" viewBox="0 0 488.000000 486.000000"
 preserveAspectRatio="xMidYMid meet">

<g transform="translate(0.000000,486.000000) scale(0.100000,-0.100000)"
fill="#000000" stroke="none">
<path d="M2202 3047 c-7 -8 -13 -73 -14 -163 l-3 -149 -190 -5 -190 -5 -3 -32
c-3 -30 -14 -39 -44 -34 -4 0 -19 -4 -33 -9 -19 -7 -25 -17 -25 -39 0 -31 -14
-41 -61 -41 -16 0 -30 -3 -30 -7 -2 -13 -2 -36 -1 -260 l2 -212 43 -3 c40 -3
42 -5 47 -38 5 -33 7 -35 50 -40 43 -5 45 -7 50 -40 l5 -35 193 -3 c105 -1
193 1 193 5 1 5 3 18 4 31 3 32 14 40 55 44 30 2 35 7 38 30 4 34 18 46 62 50
l35 3 3 474 c2 373 0 476 -10 483 -22 13 -164 10 -176 -5z m-14 -714 l-3 -238
-179 -3 c-123 -2 -183 1 -192 9 -11 9 -14 55 -14 224 0 118 3 220 6 229 5 14
32 16 195 16 l189 0 -2 -237z"/>
<path d="M3873 3053 c-10 -4 -13 -108 -13 -473 0 -385 -2 -470 -14 -479 -9 -8
-69 -11 -192 -9 l-179 3 -5 315 -5 315 -98 3 -97 3 2 -318 3 -318 35 -3 c44
-4 58 -16 62 -50 3 -23 8 -27 41 -30 21 -2 40 -9 42 -15 2 -7 6 -24 9 -40 l6
-27 193 2 192 3 5 35 c5 33 7 35 47 38 37 3 44 7 49 30 11 50 13 52 54 52 l40
0 0 479 c0 427 -2 480 -16 485 -18 7 -143 7 -161 -1z"/>
<path d="M977 2723 c-4 -3 -7 -19 -7 -35 0 -19 -5 -28 -17 -30 -10 0 -22 -2
-28 -3 -5 -2 -17 -3 -27 -4 -10 -1 -19 -15 -25 -38 -8 -36 -11 -38 -51 -41
l-42 -3 0 -240 0 -239 40 0 c41 0 43 -2 54 -52 5 -23 12 -27 49 -30 40 -3 42
-5 47 -38 l5 -35 290 0 290 0 0 75 0 75 -280 3 c-249 2 -281 4 -292 19 -17 23
-17 117 0 132 9 7 107 12 293 13 l279 3 0 75 0 75 -279 3 c-186 1 -284 6 -293
13 -13 12 -18 86 -7 126 l6 23 287 2 286 3 0 75 0 75 -286 3 c-157 1 -288 -1
-292 -5z"/>
<path d="M2637 2723 c-4 -3 -7 -19 -7 -34 0 -29 -16 -40 -47 -33 -27 6 -44 -9
-52 -47 -6 -31 -10 -34 -49 -37 l-42 -3 0 -239 0 -239 42 -3 c40 -3 43 -5 51
-40 8 -35 11 -37 50 -40 40 -3 42 -5 47 -38 l5 -35 290 0 290 0 0 75 0 75
-280 3 c-249 2 -281 4 -292 19 -14 18 -17 63 -7 112 l6 31 287 2 286 3 0 75 0
75 -280 3 c-249 2 -281 4 -292 19 -14 18 -17 82 -7 120 l6 23 287 2 286 3 3
78 3 77 -289 0 c-159 0 -292 -3 -295 -7z"/>
<path d="M1623 1565 c-48 -34 -17 -125 41 -125 35 0 56 10 56 26 0 9 -11 13
-36 11 -25 -1 -40 3 -48 16 -17 26 4 52 45 53 23 0 34 5 34 15 0 20 -65 23
-92 4z"/>
<path d="M1862 1564 c-15 -11 -22 -25 -22 -50 0 -69 76 -99 125 -49 30 30 31
54 4 89 -24 30 -72 35 -107 10z m83 -48 c0 -36 -27 -56 -52 -40 -40 25 -20 77
26 72 21 -2 26 -8 26 -32z"/>
<path d="M2104 1566 c-3 -7 -4 -38 -2 -67 2 -40 7 -54 18 -54 10 0 14 8 12 27
-4 35 12 43 26 13 14 -30 28 -32 44 -5 18 28 28 25 28 -10 0 -20 5 -30 15 -30
12 0 15 14 15 70 0 81 -15 92 -50 35 -12 -19 -25 -35 -28 -35 -4 0 -17 16 -30
35 -23 37 -39 44 -48 21z"/>
<path d="M2390 1510 c0 -44 4 -70 11 -70 6 0 13 9 16 20 3 13 14 20 29 20 24
0 64 31 64 50 0 24 -41 50 -80 50 l-40 0 0 -70z m75 20 c0 -8 -10 -16 -22 -18
-18 -3 -23 2 -23 18 0 16 5 21 23 18 12 -2 22 -10 22 -18z"/>
<path d="M2640 1518 c-21 -43 -26 -65 -19 -73 7 -7 14 -5 23 8 16 21 72 23 80
2 5 -13 36 -22 36 -11 0 2 -13 34 -30 70 -18 41 -35 66 -45 66 -10 0 -27 -24
-45 -62z m60 -10 c0 -5 -7 -8 -15 -8 -17 0 -18 2 -9 25 5 13 8 14 15 3 5 -7 9
-16 9 -20z"/>
<path d="M2870 1510 c0 -56 3 -70 15 -70 10 0 15 11 15 35 0 19 3 35 6 35 4 0
22 -17 40 -37 42 -49 56 -37 52 43 -2 47 -7 59 -20 62 -15 3 -18 -4 -18 -35
l-1 -38 -30 38 c-47 57 -59 50 -59 -33z"/>
<path d="M3110 1573 c0 -5 12 -26 25 -48 14 -22 25 -50 25 -63 0 -33 23 -22
31 14 3 16 16 46 28 67 19 30 20 37 8 37 -9 0 -24 -12 -35 -27 l-19 -26 -18
26 c-16 25 -45 37 -45 20z"/>
</g>
</svg>
